<svg xmlns="http://www.w3.org/2000/svg" width="128" height="128" viewBox="0 0 128 128">
  <!-- A fish. -->
  <defs>
    <linearGradient id="scales" x1="0" y1="0" x2="0" y2="1"><stop offset="0" stop-color="#7CC8F0"/><stop offset="0.6" stop-color="#3A8AC0"/><stop offset="1" stop-color="#CFE6F2"/></linearGradient>
  </defs>
  <path d="M92 64 L122 38 C124 54 124 74 122 90 Z" fill="#3A8AC0" stroke="#123048" stroke-width="5" stroke-linejoin="round"/>
  <path d="M8 64 C20 38 46 26 70 30 C84 32 94 46 96 64 C94 82 84 96 70 98 C46 102 20 90 8 64 Z" fill="url(#scales)" stroke="#123048" stroke-width="5.5" stroke-linejoin="round"/>
  <path d="M48 30 C56 18 70 16 78 24 C72 26 66 30 62 34 Z" fill="#3A8AC0" stroke="#123048" stroke-width="4" stroke-linejoin="round"/>
  <path d="M40 42 C48 54 48 74 40 86" fill="none" stroke="#123048" stroke-width="4" stroke-linecap="round"/>
  <g fill="none" stroke="#2A6A98" stroke-width="2.5" stroke-linecap="round">
    <path d="M56 50 C60 54 60 58 56 62 M68 46 C72 50 72 54 68 58 M62 64 C66 68 66 72 62 76 M74 60 C78 64 78 68 74 72"/>
  </g>
  <circle cx="26" cy="58" r="5.5" fill="#fff" stroke="#123048" stroke-width="3"/><circle cx="25" cy="58" r="2.5" fill="#123048"/>
  <ellipse cx="60" cy="40" rx="12" ry="4" fill="#fff" fill-opacity="0.6" transform="rotate(-8 60 40)"/>
</svg>
