<svg xmlns="http://www.w3.org/2000/svg" width="128" height="128" viewBox="0 0 128 128">
  <!-- A jar of honey. -->
  <defs>
    <linearGradient id="honey" x1="0" y1="0" x2="1" y2="0"><stop offset="0" stop-color="#FFD24A"/><stop offset="1" stop-color="#D9881A"/></linearGradient>
  </defs>
  <path d="M28 36 L100 36 C108 36 110 44 108 52 L104 104 C103 114 96 120 86 120 L42 120 C32 120 25 114 24 104 L20 52 C18 44 20 36 28 36 Z" fill="url(#honey)" stroke="#5A2E06" stroke-width="5.5" stroke-linejoin="round"/>
  <rect x="30" y="16" width="68" height="20" rx="5" fill="#C9873E" stroke="#5A2E06" stroke-width="5"/>
  <path d="M30 36 C40 46 46 40 52 48 C58 56 62 44 70 50 C76 54 82 44 98 36" fill="#C9873E" stroke="#5A2E06" stroke-width="4" stroke-linejoin="round"/>
  <rect x="40" y="66" width="48" height="34" rx="6" fill="#FFF4D6" stroke="#5A2E06" stroke-width="4"/>
  <path d="M64 72 L72 77 L72 87 L64 92 L56 87 L56 77 Z" fill="#FFD24A" stroke="#5A2E06" stroke-width="3" stroke-linejoin="round"/>
  <rect x="28" y="54" width="6" height="52" rx="3" fill="#fff" fill-opacity="0.5"/>
</svg>
