<svg xmlns="http://www.w3.org/2000/svg" width="128" height="128" viewBox="0 0 128 128">
  <!-- A wooden scoop heaped with white rice. -->
  <defs>
    <linearGradient id="wood" x1="0" y1="0" x2="0" y2="1"><stop offset="0" stop-color="#D9A35E"/><stop offset="1" stop-color="#9A6430"/></linearGradient>
  </defs>
  <path d="M86 92 L118 112" stroke="#5A3A16" stroke-width="14" stroke-linecap="round"/>
  <path d="M86 92 L118 112" stroke="#C48A4A" stroke-width="7" stroke-linecap="round"/>
  <path d="M10 72 C10 98 32 114 56 114 C80 114 100 98 100 72 Z" fill="url(#wood)" stroke="#5A3A16" stroke-width="5.5" stroke-linejoin="round"/>
  <path d="M12 72 C14 50 32 34 56 34 C80 34 98 50 100 72 Z" fill="#FBFAF4" stroke="#8F8A7A" stroke-width="4" stroke-linejoin="round"/>
  <g fill="#fff" stroke="#B9B3A0" stroke-width="2">
    <ellipse cx="36" cy="58" rx="3" ry="6" transform="rotate(30 36 58)"/>
    <ellipse cx="50" cy="46" rx="3" ry="6" transform="rotate(-20 50 46)"/>
    <ellipse cx="64" cy="54" rx="3" ry="6" transform="rotate(60 64 54)"/>
    <ellipse cx="78" cy="48" rx="3" ry="6" transform="rotate(10 78 48)"/>
    <ellipse cx="84" cy="64" rx="3" ry="6" transform="rotate(-40 84 64)"/>
    <ellipse cx="48" cy="64" rx="3" ry="6" transform="rotate(80 48 64)"/>
    <ellipse cx="26" cy="68" rx="3" ry="6" transform="rotate(-30 26 68)"/>
  </g>
  <path d="M10 72 L100 72" stroke="#5A3A16" stroke-width="5.5" stroke-linecap="round"/>
  <ellipse cx="30" cy="90" rx="6" ry="10" fill="#fff" fill-opacity="0.35" transform="rotate(-30 30 90)"/>
</svg>
