<svg xmlns="http://www.w3.org/2000/svg" width="128" height="128" viewBox="0 0 128 128">
  <!-- Sack of soy meal (pressed soybean flakes). -->
  <defs>
    <linearGradient id="sack" x1="0" y1="0" x2="0" y2="1"><stop offset="0" stop-color="#E8D2A2"/><stop offset="1" stop-color="#B8925A"/></linearGradient>
    <linearGradient id="bean" x1="0" y1="0" x2="0" y2="1"><stop offset="0" stop-color="#FBE6B4"/><stop offset="1" stop-color="#D1A660"/></linearGradient>
  </defs>
  <path d="M40 46 C30 62 22 86 26 104 C28 116 40 120 64 120 C88 120 100 116 102 104 C106 86 98 62 88 46 Z" fill="url(#sack)" stroke="#55402A" stroke-width="6" stroke-linejoin="round"/>
  <path d="M42 48 C42 36 48 26 54 20 L74 20 C80 26 86 36 86 48 Z" fill="#D9BE86" stroke="#55402A" stroke-width="6" stroke-linejoin="round"/>
  <rect x="38" y="40" width="52" height="11" rx="5.5" fill="#6AA837" stroke="#3F5A12" stroke-width="5"/>
  <g fill="#C9A060" stroke="#8A6630" stroke-width="2"><circle cx="56" cy="16" r="5"/><circle cx="66" cy="12" r="4.5"/><circle cx="74" cy="17" r="4"/></g>
  <g fill="url(#bean)" stroke="#6B4A1E" stroke-width="3.5">
    <ellipse cx="56" cy="86" rx="11" ry="9"/>
    <ellipse cx="76" cy="80" rx="11" ry="9"/>
    <ellipse cx="68" cy="98" rx="11" ry="9"/>
  </g>
  <ellipse cx="44" cy="74" rx="6" ry="14" fill="#fff" fill-opacity="0.5" transform="rotate(12 44 74)"/>
</svg>
