<svg xmlns="http://www.w3.org/2000/svg" width="128" height="128" viewBox="0 0 128 128">
  <!-- A carrot and a tomato. -->
  <defs>
    <linearGradient id="carrot" x1="0" y1="0" x2="1" y2="0"><stop offset="0" stop-color="#FFB054"/><stop offset="1" stop-color="#E06A1A"/></linearGradient>
    <radialGradient id="tomato" cx="0.4" cy="0.35" r="0.7"><stop offset="0" stop-color="#FF7A5E"/><stop offset="1" stop-color="#C4271B"/></radialGradient>
  </defs>
  <g transform="rotate(-35 46 64)">
    <path d="M36 14 C34 4 24 2 22 10 C28 12 32 16 34 22 Z M46 12 C50 2 60 2 60 10 C54 12 50 16 48 22 Z M41 6 L41 22" fill="#8CC34A" stroke="#3F5A12" stroke-width="4" stroke-linejoin="round"/>
    <path d="M28 24 C34 18 50 18 56 24 C58 28 56 36 54 44 L44 116 C43 122 39 122 38 116 L28 44 C27 36 25 28 28 24 Z" fill="url(#carrot)" stroke="#6B2E0C" stroke-width="5" stroke-linejoin="round"/>
    <path d="M32 46 L38 46 M48 60 L54 60 M34 76 L40 76 M46 92 L50 92" stroke="#B4501A" stroke-width="3" stroke-linecap="round"/>
  </g>
  <circle cx="86" cy="84" r="30" fill="url(#tomato)" stroke="#5E120C" stroke-width="5"/>
  <path d="M86 56 L80 64 L70 62 L78 70 L86 66 L94 70 L102 62 L92 64 Z" fill="#6AA837" stroke="#3F5A12" stroke-width="3.5" stroke-linejoin="round"/>
  <ellipse cx="74" cy="76" rx="7" ry="4" fill="#fff" fill-opacity="0.6" transform="rotate(-30 74 76)"/>
</svg>
